<svg width="12" height="20" viewBox="0 0 12 20" fill="none" xmlns="http://www.w3.org/2000/svg">
<path d="M0 10C0 10.3946 0.146561 10.7328 0.462232 11.0259L9.23337 19.6167C9.4814 19.8647 9.79707 20 10.1691 20C10.9132 20 11.5107 19.4138 11.5107 18.6584C11.5107 18.2864 11.3529 17.9594 11.1048 17.7001L3.2018 10L11.1048 2.29989C11.3529 2.04059 11.5107 1.70237 11.5107 1.3416C11.5107 0.586246 10.9132 0 10.1691 0C9.79707 0 9.4814 0.135287 9.23337 0.383315L0.462232 8.9628C0.146561 9.26719 0 9.60541 0 10Z" fill="#007AFF"/>
</svg>
